<svg width="18" height="18" viewBox="0 0 18 18" fill="none" xmlns="http://www.w3.org/2000/svg">
<path fill-rule="evenodd" clip-rule="evenodd" d="M9 0C6.69083 0 6.40325 0.0105 5.49517 0.0555C2.40683 0.2055 0.692667 2.019 0.551 5.289C0.509917 6.2505 0.5 6.5565 0.5 9C0.5 11.445 0.509917 11.751 0.551 12.711C0.692667 15.9795 2.40683 17.796 5.49517 17.946C6.40325 17.9895 6.69083 18 9 18C11.3092 18 11.5982 17.9895 12.5063 17.946C15.5889 17.796 17.3102 15.9825 17.449 12.711C17.4901 11.751 17.5 11.445 17.5 9C17.5 6.5565 17.4901 6.2505 17.449 5.289C17.3102 2.0235 15.5946 0.204 12.5063 0.0555C11.5982 0.0105 11.3092 0 9 0ZM9 1.62296C11.2695 1.62296 11.5387 1.63196 12.4354 1.67546C14.7403 1.78646 15.8142 2.94296 15.9204 5.36396C15.9601 6.31346 15.9686 6.59696 15.9686 8.99996C15.9686 11.403 15.9601 11.688 15.9204 12.636C15.8142 15.0555 14.7417 16.215 12.4354 16.326C11.5387 16.368 11.2709 16.3785 9 16.3785C6.7305 16.3785 6.46133 16.3695 5.566 16.326C3.25683 16.2135 2.18725 15.0525 2.081 12.636C2.04133 11.688 2.03141 11.403 2.03141 8.99996C2.03141 6.59696 2.04133 6.31196 2.081 5.36396C2.18583 2.94146 3.25966 1.78496 5.566 1.67396C6.46133 1.63046 6.7305 1.62296 9 1.62296ZM4.63525 8.99996C4.63525 6.44696 6.59025 4.37846 9 4.37846C11.4097 4.37846 13.3647 6.44846 13.3647 8.99996C13.3647 11.553 11.4097 13.6215 9 13.6215C6.59025 13.6215 4.63525 11.553 4.63525 8.99996ZM8.99999 12C7.43458 12 6.16666 10.6575 6.16666 9.00005C6.16666 7.34405 7.43458 6.00005 8.99999 6.00005C10.564 6.00005 11.8347 7.34255 11.8347 9.00005C11.8347 10.6575 10.564 12 8.99999 12ZM12.5162 4.19696C12.5162 3.59996 12.9737 3.11696 13.5362 3.11696C14.1014 3.11696 14.5576 3.59996 14.5576 4.19696C14.5576 4.79396 14.1 5.27696 13.5362 5.27696C12.9723 5.27696 12.5162 4.79246 12.5162 4.19696Z" fill="#FEF9F9"/>
</svg>
