<svg width="29" height="29" viewBox="0 0 29 29" fill="none" xmlns="http://www.w3.org/2000/svg">
<path d="M24.7165 17.441C23.0157 17.441 21.5984 16.0237 21.5984 14.3229V4.59058H27.8346V14.3229C27.8346 16.0237 26.4173 17.441 24.7165 17.441Z" stroke="#FEF9F9" stroke-width="1.5" stroke-miterlimit="10" stroke-linecap="round" stroke-linejoin="round"/>
<path d="M27.8347 28.2126H18.8583V15.6457C18.8583 10.7323 22.8268 6.66931 27.8347 6.66931V28.2126Z" stroke="#FEF9F9" stroke-width="1.5" stroke-miterlimit="10" stroke-linecap="round" stroke-linejoin="round"/>
<path d="M6.85827 18.4803C5.15748 18.4803 3.74017 17.0629 3.74017 15.3622V5.62988H9.9764V15.3622C9.9764 17.0629 8.55906 18.4803 6.85827 18.4803Z" stroke="#FEF9F9" stroke-width="1.5" stroke-miterlimit="10" stroke-linecap="round" stroke-linejoin="round"/>
<path d="M9.97638 28.2125H1V16.874C1 11.9606 4.9685 7.99207 9.88189 7.99207H9.97638V28.2125Z" stroke="#FEF9F9" stroke-width="1.5" stroke-miterlimit="10" stroke-linecap="round" stroke-linejoin="round"/>
<path d="M15.8347 13.8504C14.1339 13.8504 12.7166 12.4331 12.7166 10.7323V1H18.9528V10.7323C18.9528 12.4331 17.5354 13.8504 15.8347 13.8504Z" stroke="#FEF9F9" stroke-width="1.5" stroke-miterlimit="10" stroke-linecap="round" stroke-linejoin="round"/>
<path d="M18.9528 28.2126H9.97638V12.0551C9.97638 7.14172 13.9449 3.17322 18.8583 3.17322H18.9528V28.2126Z" stroke="#FEF9F9" stroke-width="1.5" stroke-miterlimit="10" stroke-linecap="round" stroke-linejoin="round"/>
</svg>
